<svg xmlns="http://www.w3.org/2000/svg" version="1.1" xmlns:xlink="http://www.w3.org/1999/xlink" xmlns:svgjs="http://svgjs.dev/svgjs" width="2000" height="1500" viewBox="0 0 2000 1500"><rect width="2000" height="1500" fill="#050816"></rect><g transform="matrix(0.75,0,0,0.75,249.090909090909,282.7536437246963)"><svg viewBox="0 0 396 247" data-background-color="#050816" preserveAspectRatio="xMidYMid meet" height="1247" width="2000" xmlns="http://www.w3.org/2000/svg" xmlns:xlink="http://www.w3.org/1999/xlink"><g id="tight-bounds" transform="matrix(1,0,0,1,0.2400000000000091,-0.09999999999999432)"><svg viewBox="0 0 395.52 247.2" height="247.2" width="395.52"><g><svg></svg></g><g><svg viewBox="0 0 395.52 247.2" height="247.2" width="395.52"><g transform="matrix(1,0,0,1,75.54432,67.85674265346535)"><svg viewBox="0 0 244.43135999999998 111.4865146930693" height="111.4865146930693" width="244.43135999999998"><g><svg viewBox="0 0 244.43135999999998 111.4865146930693" height="111.4865146930693" width="244.43135999999998"><g><svg viewBox="0 0 244.43135999999998 111.4865146930693" height="111.4865146930693" width="244.43135999999998"><g><svg viewBox="0 0 244.43135999999998 111.4865146930693" height="111.4865146930693" width="244.43135999999998"><g id="textblocktransform"><svg viewBox="0 0 244.43135999999998 111.4865146930693" height="111.4865146930693" width="244.43135999999998" id="textblock"><g><svg viewBox="0 0 244.43135999999998 111.4865146930693" height="111.4865146930693" width="244.43135999999998"><g transform="matrix(1,0,0,1,0,0)"><svg width="244.43135999999998" viewBox="0.95 -34.15 75.75 34.55" height="111.4865146930693" data-palette-color="#50a060"><path d="M18.2-21.3L21.55-33.2 27.25-33.2 30.55-21.3Q31.6-17.55 32.43-14.33 33.25-11.1 33.55-9.75L33.55-9.75 33.85-8.4Q34.5-12.85 36.65-21.35L36.65-21.35 39.75-33.7 47.6-33.7 38.6 0 30 0 27.05-10.65Q26-14.5 25.33-17.15 24.65-19.8 24.5-20.55L24.5-20.55 24.4-21.3Q24.25-19.25 21.7-10.65L21.7-10.65 18.6 0 10 0 0.95-33.7 9.05-33.7 12.15-21.3Q13.15-17.3 13.8-14.08 14.45-10.85 14.6-9.6L14.6-9.6 14.8-8.4Q15.65-12.3 18.2-21.3L18.2-21.3ZM76.7-32.25L76.7-32.25 76.7-24.85Q72.95-27.15 68.35-27.15L68.35-27.15Q64.3-27.15 61.55-24.33 58.8-21.5 58.8-16.75L58.8-16.75Q58.8-12.1 61.55-9.38 64.3-6.65 68.65-6.65L68.65-6.65Q73.35-6.65 76.7-9.05L76.7-9.05 76.7-1.5Q73.65 0.4 67.9 0.4L67.9 0.4Q60.5 0.4 55.52-4.38 50.55-9.15 50.55-16.75L50.55-16.75Q50.55-24.45 55.37-29.3 60.2-34.15 67.95-34.15L67.95-34.15Q73.65-34.15 76.7-32.25Z" opacity="1" transform="matrix(1,0,0,1,0,0)" fill="#50a060" class="wordmark-text-0" data-fill-palette-color="primary" id="text-0"></path></svg></g></svg></g></svg></g></svg></g></svg></g></svg></g></svg></g><g><path d="M245.816 0c68.262 0 123.6 55.338 123.6 123.6 0 68.262-55.338 123.6-123.6 123.6-42.752 0-80.434-21.705-102.628-54.697l6.118 0c21.508 30.071 56.72 49.67 96.51 49.67 65.486 0 118.573-53.087 118.573-118.573 0-65.486-53.087-118.573-118.573-118.573-39.79 0-75.002 19.599-96.51 49.67l-6.118 0c22.194-32.992 59.876-54.697 102.628-54.697z" fill="#50a060" stroke="transparent" data-fill-palette-color="tertiary"></path></g></svg></g><defs></defs></svg><rect width="395.52" height="247.2" fill="none" stroke="none" visibility="hidden"></rect></g></svg></g></svg>